#!OML:ASF E:\CV Data\Top Level 1\Subject 1\Session 1\player.ASF
:FULLY-SPECIFIED
:DEGREES
1031
root 5.47977 17.3386 -3.88531 25.7552 -57.9413 -16.0069
lowerback 22.3159 -3.37781 6.03466
upperback 6.45673 -3.06526 5.93313
thorax -5.2995 -1.70918 3.83525
lowerneck -19.3173 12.8635 -5.45607
upperneck 4.31452 18.6564 -3.0051
head 4.09359 8.88585 1.48072
rclavicle 5.1684e-015 7.15625e-015
rhumerus 131.22 208.619 193.841
rradius 62.6897
rwrist -25.367
rhand -32.6552 18.9037
rfingers 7.12502
rthumb -5.88136 -10.9947
lclavicle 5.1684e-015 7.15625e-015
lhumerus -53.3468 -8.7313 21.4304
lradius 16.0413
lwrist -38.1478
lhand -6.05686 17.2069
lfingers 7.12502
lthumb 19.7777 46.2207
rfemur -15.8444 -5.19918 15.4329
rtibia 39.2419
rfoot -10.7855 -16.8585
rtoes -21.8271
lfemur -56.2113 18.3202 -3.73468
ltibia 24.9248
lfoot -8.69604 24.6971
ltoes -12.6881
1032
root 5.47031 17.2615 -3.71563 25.8982 -57.4086 -15.8291
lowerback 22.3172 -3.51399 6.34271
upperback 6.38175 -3.15657 6.08101
thorax -5.3845 -1.75542 3.85388
lowerneck -19.3047 12.9132 -5.47346
upperneck 4.34512 18.7482 -3.19113
head 4.11786 8.91668 1.43882
rclavicle 6.32135e-014 -9.54166e-014
rhumerus 132.528 207.989 195.085
rradius 64.3835
rwrist -24.4602
rhand -32.7168 19.5156
rfingers 7.12502
rthumb -5.94085 -10.3811
lclavicle 6.32135e-014 -9.54166e-014
lhumerus -55.1807 -5.93244 21.1517
lradius 15.4054
lwrist -40.4074
lhand -6.61505 17.2981
lfingers 7.12502
lthumb 19.241 46.3662
rfemur -16.0083 -5.1504 14.9402
rtibia 39.8946
rfoot -10.9615 -16.9418
rtoes -22.6424
lfemur -55.8339 18.2181 -3.38221
ltibia 24.6615
lfoot -8.25751 25.5814
ltoes -12.1954
1033
root 5.46212 17.1961 -3.5411 26.0498 -56.8226 -15.649
lowerback 22.2835 -3.65406 6.69531
upperback 6.28025 -3.24202 6.24989
thorax -5.48202 -1.79915 3.86873
lowerneck -19.2945 12.9557 -5.48649
upperneck 4.42846 18.833 -3.36945
head 4.15911 8.94184 1.40095
rclavicle -1.96797e-014 -6.04305e-014
rhumerus 133.93 207.521 196.43
rradius 65.9611
rwrist -23.7286
rhand -32.7715 20.0792
rfingers 7.12502
rthumb -5.99358 -9.81602
lclavicle -1.96797e-014 -6.04305e-014
lhumerus -57.0904 -3.06757 20.7306
lradius 14.7466
lwrist -42.8536
lhand -7.063 17.2413
lfingers 7.12502
lthumb 18.8102 46.3519
rfemur -16.131 -5.14245 14.4662
rtibia 40.49
rfoot -11.0694 -17.0283
rtoes -23.5113
lfemur -55.4951 18.0583 -3.07362
ltibia 24.4289
lfoot -7.74086 26.5021
ltoes -11.5793
1034
root 5.45308 17.1152 -3.35869 26.1852 -56.1803 -15.4402
lowerback 22.2109 -3.78458 7.09152
upperback 6.15273 -3.30542 6.42946
thorax -5.59045 -1.83246 3.86436
lowerneck -19.2939 12.985 -5.45912
upperneck 4.57452 18.8963 -3.54473
head 4.22546 8.95369 1.36131
rclavicle 2.32578e-014 -5.1684e-015
rhumerus 135.375 207.275 197.895
rradius 67.4067
rwrist -23.1666
rhand -32.779 20.5919
rfingers 7.12502
rthumb -6.00084 -9.30315
lclavicle 2.32578e-014 -5.1684e-015
lhumerus -59.0491 -0.14294 20.1094
lradius 14.1035
lwrist -45.5131
lhand -7.37503 17.0267
lfingers 7.12502
lthumb 18.5101 46.166
rfemur -16.231 -5.19122 13.9638
rtibia 41.0949
rfoot -11.1294 -17.1043
rtoes -24.4541
lfemur -55.3048 17.8798 -2.85097
ltibia 24.2864
lfoot -7.1182 27.4096
ltoes -10.8603
1035
root 5.44405 17.0335 -3.17007 26.2868 -55.4923 -15.1943
lowerback 22.1151 -3.8994 7.49935
upperback 5.997 -3.34382 6.62579
thorax -5.71832 -1.8542 3.866
lowerneck -19.2756 13.0066 -5.39796
upperneck 4.75944 18.9448 -3.7243
head 4.30537 8.95661 1.31614
rclavicle -3.77691e-014 2.38542e-014
rhumerus 136.895 207.286 199.441
rradius 68.6702
rwrist -22.6911
rhand -32.8119 21.1345
rfingers 7.12502
rthumb -6.03257 -8.75961
lclavicle -3.77691e-014 2.38542e-014
lhumerus -61.1142 2.88627 19.1884
lradius 13.5109
lwrist -48.3883
lhand -7.52755 16.6161
lfingers 7.12502
lthumb 18.3634 45.7693
rfemur -16.2864 -5.2722 13.4431
rtibia 41.6736
rfoot -11.1123 -17.1967
rtoes -25.4608
lfemur -55.2388 17.7701 -2.82362
ltibia 24.2238
lfoot -6.44829 28.1932
ltoes -9.98778
1036
root 5.43396 16.9521 -2.9761 26.358 -54.7761 -14.93
lowerback 22.0023 -3.96904 7.8966
upperback 5.82153 -3.32453 6.84017
thorax -5.85846 -1.84874 3.87847
lowerneck -19.2546 13.009 -5.28743
upperneck 4.99695 18.962 -3.91093
head 4.4073 8.94138 1.26308
rclavicle -3.97569e-015 -2.74323e-014
rhumerus 138.43 207.595 201.071
rradius 69.722
rwrist -22.2187
rhand -32.9287 21.7835
rfingers 7.12502
rthumb -6.14539 -8.10736
lclavicle -3.97569e-015 -2.74323e-014
lhumerus -63.2655 5.92455 18.0318
lradius 13.0039
lwrist -51.2614
lhand -7.46659 16.0523
lfingers 7.12502
lthumb 18.422 45.2
rfemur -16.3011 -5.35992 12.9103
rtibia 42.2617
rfoot -11.0247 -17.3028
rtoes -26.5154
lfemur -55.3297 17.7932 -3.03119
ltibia 24.3326
lfoot -5.84375 28.7944
ltoes -8.92797
1037
root 5.42217 16.8715 -2.77697 26.3841 -54.0297 -14.6503
lowerback 21.8924 -3.97961 8.26365
upperback 5.62609 -3.23088 7.08305
thorax -6.01956 -1.8083 3.92123
lowerneck -19.2268 12.9897 -5.1113
upperneck 5.28848 18.9431 -4.12353
head 4.53455 8.90456 1.19411
rclavicle -1.51076e-014 3.4191e-014
rhumerus 139.983 208.231 202.768
rradius 70.5152
rwrist -21.6525
rhand -33.2041 22.6009
rfingers 7.12502
rthumb -6.4113 -7.28206
lclavicle -1.51076e-014 3.4191e-014
lhumerus -65.512 8.94653 16.6556
lradius 12.5892
lwrist -53.9868
lhand -7.23688 15.3692
lfingers 7.12502
lthumb 18.643 44.4958
rfemur -16.2247 -5.43747 12.368
rtibia 42.7951
rfoot -10.824 -17.4325
rtoes -27.6264
lfemur -55.5238 17.9772 -3.50861
ltibia 24.5301
lfoot -5.28703 29.1636
ltoes -7.67066
1038
root 5.4081 16.7922 -2.57224 26.363 -53.2284 -14.3674
lowerback 21.7801 -3.9267 8.61143
upperback 5.41877 -3.056 7.36188
thorax -6.18999 -1.72975 3.99366
lowerneck -19.1941 12.939 -4.87064
upperneck 5.61709 18.8749 -4.36622
head 4.68228 8.84025 1.10597
rclavicle -4.41302e-014 -2.62396e-014
rhumerus 141.536 209.231 204.524
rradius 71.0234
rwrist -20.9412
rhand -33.6713 23.4682
rfingers 7.12502
rthumb -6.86224 -6.40063
lclavicle -4.41302e-014 -2.62396e-014
lhumerus -67.8139 11.8772 15.1997
lradius 12.2586
lwrist -56.2638
lhand -6.97964 14.673
lfingers 7.12502
lthumb 18.8904 43.7757
rfemur -16.0243 -5.49039 11.8325
rtibia 43.2532
rfoot -10.5136 -17.5861
rtoes -28.7475
lfemur -55.8154 18.3063 -4.25086
ltibia 24.8207
lfoot -4.81605 29.277
ltoes -6.2005
1039
root 5.39073 16.7143 -2.36186 26.3103 -52.3461 -14.1128
lowerback 21.6646 -3.79807 8.95194
upperback 5.19805 -2.78049 7.68978
thorax -6.37119 -1.60413 4.09851
lowerneck -19.1464 12.8395 -4.57854
upperneck 5.97192 18.735 -4.62731
head 4.84288 8.7391 0.999727
rclavicle 4.8901e-014 -6.12257e-014
rhumerus 143.069 210.622 206.334
rradius 71.2335
rwrist -20.0668
rhand -34.3474 24.3459
rfingers 7.12502
rthumb -7.51493 -5.50065
lclavicle 4.8901e-014 -6.12257e-014
lhumerus -70.1177 14.6919 13.7687
lradius 11.9952
lwrist -57.9053
lhand -6.8733 14.0981
lfingers 7.12502
lthumb 18.9927 43.1908
rfemur -15.6629 -5.48953 11.3394
rtibia 43.6042
rfoot -10.0915 -17.782
rtoes -29.8589
lfemur -56.1988 18.7732 -5.23597
ltibia 25.2141
lfoot -4.47007 29.1168
ltoes -4.45954
1040
root 5.36996 16.6354 -2.14404 26.243 -51.3108 -13.9035
lowerback 21.5164 -3.61085 9.34661
upperback 4.95531 -2.41523 8.07819
thorax -6.55945 -1.43752 4.21627
lowerneck -19.0773 12.6827 -4.21855
upperneck 6.34776 18.5099 -4.9259
head 5.01648 8.59402 0.865171
rclavicle 3.73715e-014 -1.02573e-013
rhumerus 144.576 212.438 208.181
rradius 71.1429
rwrist -19.0457
rhand -35.2441 25.1266
rfingers 7.12502
rthumb -8.38035 -4.68718
lclavicle 3.73715e-014 -1.02573e-013
lhumerus -72.3044 17.2916 12.6672
lradius 11.7909
lwrist -58.5693
lhand -7.0326 13.7552
lfingers 7.12502
lthumb 18.8395 42.8628
rfemur -15.1083 -5.45851 10.9285
rtibia 43.8178
rfoot -9.56267 -18.0242
rtoes -30.9258
lfemur -56.7988 19.3796 -6.48533
ltibia 25.7217
lfoot -3.8169 28.6144
ltoes -3.26986
1041
root 5.34487 16.5568 -1.91864 26.1918 -50.0736 -13.7767
lowerback 21.3114 -3.37207 9.82904
upperback 4.6846 -1.96445 8.53668
thorax -6.74934 -1.23284 4.33999
lowerneck -18.9888 12.4661 -3.79336
upperneck 6.74522 18.1949 -5.24543
head 5.20045 8.4045 0.705727
rclavicle 3.65764e-014 -3.4191e-014
rhumerus 146.076 214.73 210.018
rradius 70.754
rwrist -17.9288
rhand -36.3315 25.7427
rfingers 7.12502
rthumb -9.42965 -4.02635
lclavicle 3.65764e-014 -3.4191e-014
lhumerus -74.243 19.6582 12.1253
lradius 11.6251
lwrist -58.0702
lhand -7.55 13.729
lfingers 7.12502
lthumb 18.3418 42.8843
rfemur -14.332 -5.38689 10.6615
rtibia 43.8579
rfoot -8.91966 -18.3431
rtoes -31.9316
lfemur -57.5258 19.9622 -7.84159
ltibia 26.3488
lfoot -3.18485 27.8744
ltoes -2.00941
